<svg width="144" height="190" viewBox="0 0 144 190" fill="none" xmlns="http://www.w3.org/2000/svg">
<path d="M102.733 218.267L48.2368 219.844V99.3555L89.3848 99.2803L98.7399 182.697L102.733 218.267Z" fill="white"/>
<path d="M102.733 218.267L48.2393 219.844V146.825C56.0227 173.595 79.4957 198.101 99.7 164.849L102.733 218.267Z" fill="#F0F0F7"/>
<path d="M111.422 120.527L109.519 108.289C109.519 108.289 116.962 112.388 120.466 116.226C130.197 126.892 143.608 218.267 143.608 218.267L115.312 217.869L111.422 120.527Z" fill="#008E87"/>
<path d="M84.8555 94.8833C89.0593 142.662 91.9194 186.936 91.6236 223L122.218 219.46C122.218 219.46 120.544 126.571 114.129 112.095C112.633 108.715 100.909 104.131 94.9225 102.231C88.9339 100.328 84.8555 94.8833 84.8555 94.8833Z" fill="#06A29E"/>
<mask id="mask0_226_245" style="mask-type:luminance" maskUnits="userSpaceOnUse" x="84" y="94" width="39" height="129">
<path d="M84.8555 94.8833C89.0593 142.662 91.9194 186.936 91.6236 223L122.218 219.46C122.218 219.46 120.544 126.571 114.129 112.095C112.633 108.715 100.909 104.131 94.9225 102.231C88.9339 100.328 84.8555 94.8833 84.8555 94.8833Z" fill="white"/>
</mask>
<g mask="url(#mask0_226_245)">
<path opacity="0.3" d="M87.2041 123.122C87.2041 123.122 96.5242 115.388 110.035 121.951C110.035 121.951 105.824 112.736 104.222 111.478C102.621 110.222 89.6256 117.384 87.2041 123.122Z" fill="#006B66"/>
<path d="M93.6915 225.419L93.135 225.286C97.0681 208.875 89.029 117.938 88.9463 117.02L89.5178 116.97C89.598 117.885 97.6471 208.917 93.6915 225.419Z" fill="#006661"/>
<path d="M92.8694 154.847C92.5285 154.847 92.1951 154.844 91.8667 154.839L91.8742 154.265C102.595 154.413 121.988 152.089 122.183 152.067L122.251 152.636C122.065 152.661 103.799 154.847 92.8694 154.847Z" fill="#006661"/>
<path d="M93.0423 157.055C92.6989 157.055 92.3655 157.053 92.0371 157.048L92.0446 156.474C102.778 156.619 122.158 154.298 122.354 154.275L122.421 154.844C122.233 154.869 103.972 157.055 93.0423 157.055Z" fill="#006661"/>
<path d="M108.642 225.396L108.075 225.306C110.677 209.075 106.967 156.902 106.93 156.379L107.501 156.336C107.539 156.862 111.254 209.1 108.642 225.396Z" fill="#006661"/>
</g>
<path d="M87.2043 123.122C87.2043 123.122 84.8981 95.6604 84.2388 94.8834C83.5795 94.1088 81.7672 90.7322 81.8073 88.0876C81.8073 88.0876 84.2689 86.3103 86.7957 87.3932C89.3199 88.4787 97.8078 98.4755 101.255 101.644C103.834 104.015 110.036 118.953 110.036 118.953C110.036 118.953 102.182 116.466 96.404 117.579C90.621 118.695 87.2043 123.122 87.2043 123.122Z" fill="#0FB5AC"/>
<mask id="mask1_226_245" style="mask-type:luminance" maskUnits="userSpaceOnUse" x="81" y="87" width="30" height="37">
<path d="M87.2043 123.122C87.2043 123.122 84.8981 95.6604 84.2388 94.8834C83.5795 94.1088 81.7672 90.7322 81.8073 88.0876C81.8073 88.0876 84.2689 86.3103 86.7957 87.3932C89.3199 88.4787 97.8078 98.4755 101.255 101.644C103.834 104.015 110.036 118.953 110.036 118.953C110.036 118.953 102.182 116.466 96.404 117.579C90.621 118.695 87.2043 123.122 87.2043 123.122Z" fill="white"/>
</mask>
<g mask="url(#mask1_226_245)">
<path d="M86.6977 122.131L86.249 121.776C93.4484 112.741 104.305 115.233 106.837 115.972C103.483 105.635 97.9028 97.2271 97.8452 97.1418L98.3215 96.8235C98.3791 96.9112 104.195 105.67 107.551 116.326L107.727 116.88L107.18 116.679C107.057 116.632 94.5914 112.225 86.6977 122.131Z" fill="#006661"/>
</g>
<path d="M32.8407 120.527L34.7434 108.289C34.7434 108.289 27.3009 112.388 23.7965 116.226C14.0653 126.892 0.654297 218.267 0.654297 218.267L28.9503 217.869L32.8407 120.527Z" fill="#008E87"/>
<path d="M59.4073 94.8833C55.2035 142.662 52.3433 186.936 52.6391 223L22.0444 219.46C22.0444 219.46 23.7189 126.571 30.1337 112.095C31.6302 108.715 43.3542 104.131 49.3402 102.231C55.3263 100.328 59.4073 94.8833 59.4073 94.8833Z" fill="#06A29E"/>
<mask id="mask2_226_245" style="mask-type:luminance" maskUnits="userSpaceOnUse" x="22" y="94" width="38" height="129">
<path d="M59.4073 94.8833C55.2035 142.662 52.3433 186.936 52.6391 223L22.0444 219.46C22.0444 219.46 23.7189 126.571 30.1337 112.095C31.6302 108.715 43.3542 104.131 49.3402 102.231C55.3263 100.328 59.4073 94.8833 59.4073 94.8833Z" fill="white"/>
</mask>
<g mask="url(#mask2_226_245)">
<path opacity="0.3" d="M57.0584 123.122C57.0584 123.122 47.7383 115.388 34.2271 121.951C34.2271 121.951 38.4384 112.736 40.0402 111.478C41.642 110.222 54.6369 117.384 57.0584 123.122Z" fill="#006B66"/>
<path d="M50.5684 225.419C46.6127 208.917 54.6618 117.888 54.7446 116.97L55.3161 117.02C55.2334 117.938 47.1943 208.875 51.1274 225.286L50.5684 225.419Z" fill="#006661"/>
<path d="M51.3927 154.847C40.4633 154.847 22.1968 152.661 22.0088 152.636L22.0765 152.067C22.272 152.089 41.6616 154.416 52.3854 154.265L52.3929 154.839C52.067 154.844 51.7336 154.847 51.3927 154.847Z" fill="#006661"/>
<path d="M51.2203 157.055C40.2909 157.055 22.0269 154.869 21.8389 154.844L21.9066 154.275C22.1021 154.298 41.4741 156.617 52.2155 156.474L52.223 157.048C51.8971 157.053 51.5612 157.055 51.2203 157.055Z" fill="#006661"/>
<path d="M35.6205 225.396C33.0085 209.1 36.7235 156.862 36.7611 156.336L37.3326 156.379C37.295 156.902 33.5851 209.078 36.1871 225.306L35.6205 225.396Z" fill="#006661"/>
</g>
<path d="M57.0584 123.122C57.0584 123.122 59.3646 95.6604 60.0238 94.8834C60.6831 94.1088 62.4955 90.7322 62.4554 88.0876C62.4554 88.0876 59.9937 86.3103 57.467 87.3932C54.9427 88.4787 46.4549 98.4755 43.0081 101.644C40.4287 104.015 34.2271 118.953 34.2271 118.953C34.2271 118.953 42.0806 116.466 47.8587 117.579C53.6392 118.695 57.0584 123.122 57.0584 123.122Z" fill="#0FB5AC"/>
<mask id="mask3_226_245" style="mask-type:luminance" maskUnits="userSpaceOnUse" x="34" y="87" width="29" height="37">
<path d="M57.0584 123.122C57.0584 123.122 59.3646 95.6604 60.0238 94.8834C60.6831 94.1088 62.4955 90.7322 62.4554 88.0876C62.4554 88.0876 59.9937 86.3103 57.467 87.3932C54.9427 88.4787 46.4549 98.4755 43.0081 101.644C40.4287 104.015 34.2271 118.953 34.2271 118.953C34.2271 118.953 42.0806 116.466 47.8587 117.579C53.6392 118.695 57.0584 123.122 57.0584 123.122Z" fill="white"/>
</mask>
<g mask="url(#mask3_226_245)">
<path d="M57.5622 122.131C49.6685 112.227 37.2025 116.634 37.0772 116.679L36.5308 116.88L36.7062 116.326C40.0627 105.667 45.8783 96.9112 45.936 96.8235L46.4123 97.1418C46.3546 97.2271 40.7746 105.635 37.4206 115.972C39.9524 115.233 50.8091 112.739 58.0109 121.776L57.5622 122.131Z" fill="#006661"/>
</g>
<path d="M107.912 107.347C103.688 106.154 102.4 100.275 97.2812 96.3599C91.5559 91.9806 90.9392 88.6015 94.9575 86.155C99.0635 83.6558 101.926 79.2138 103.663 74.8396C107.724 64.6096 108.188 52.5723 107.594 41.678C107.103 32.6513 105.07 23.4992 100.239 15.7634C89.365 -1.65085 64.0846 -5.01238 48.3448 7.55888C37.3027 16.3801 33.9487 30.8138 33.4874 44.3126C33.0011 58.6235 33.7807 81.0513 49.2121 87.6841C51.5284 88.6793 48.8838 92.9733 48.3398 96.1243C48.0064 98.0544 51.3579 95.2093 48.7785 96.0365C44.3716 97.4528 41.2533 105.788 37.1773 106.936C36.5556 107.111 36.4604 108.174 37.1773 108.287C39.1175 108.595 41.7521 116.198 43.0631 117.582C45.9935 120.673 48.5704 124.052 51.8693 126.779C57.2813 131.251 65.0371 133.094 72.2891 132.805C79.4584 133.063 86.9209 131.156 92.526 126.889C95.8599 124.35 98.3992 120.896 101.227 117.843C102.575 116.386 105.904 109.011 107.91 108.693C108.629 108.585 108.536 107.522 107.912 107.347Z" fill="#142D51"/>
<path d="M96.6546 33.5938C90.854 25.9859 81.5966 21.0576 71.1636 21.0576C60.7255 21.0576 51.4657 25.9884 45.6651 33.6013C45.2214 39.3467 44.9732 45.1222 45.061 50.8752C45.1562 57.1721 44.685 64.3714 46.6753 70.4252C49.7511 79.7728 61.5152 82.0564 69.7749 84.3802C70.2687 84.5181 70.7299 84.5582 71.1586 84.5231C71.5897 84.5582 72.051 84.5181 72.5448 84.3802C80.7769 82.064 91.8667 79.9107 95.4212 70.9892C97.7149 65.2287 97.0832 58.0144 97.2386 51.9305C97.3915 45.8291 97.1308 39.6927 96.6546 33.5938Z" fill="#FFD4C5"/>
<path d="M45.6074 33.6715C45.625 33.6489 45.645 33.6264 45.6626 33.6013C45.6701 33.4985 45.6776 33.3957 45.6851 33.293C45.6626 33.4208 45.6325 33.5462 45.6074 33.6715Z" fill="#F9E9E2"/>
<path d="M96.7147 33.6715C96.6871 33.5312 96.6545 33.3933 96.627 33.2529C96.637 33.3657 96.6445 33.481 96.652 33.5938C96.6746 33.6214 96.6971 33.6465 96.7147 33.6715Z" fill="#F9E9E2"/>
<path d="M96.6269 33.2528C95.7671 29.0139 94.1803 25.1134 92.0321 21.7469C87.2467 14.2493 79.6814 9.40625 71.161 9.40625C63.5155 9.40625 56.642 13.3067 51.8542 19.5234C48.9012 23.3562 46.7429 28.0689 45.6876 33.2929C45.6801 33.3957 45.6726 33.4985 45.665 33.6012C51.4656 25.9883 60.7255 21.0575 71.1635 21.0575C81.5965 21.0575 90.8539 25.9858 96.6545 33.5937C96.6445 33.4809 96.6369 33.3681 96.6269 33.2528Z" fill="white"/>
<path d="M71.161 37.3058C71.1757 37.3058 71.1757 37.2812 71.161 37.2812C71.1462 37.2812 71.1462 37.3058 71.161 37.3058Z" fill="#DC864B"/>
<g opacity="0.6">
<mask id="mask4_226_245" style="mask-type:luminance" maskUnits="userSpaceOnUse" x="31" y="0" width="77" height="127">
<path d="M101.232 117.845C102.58 116.389 105.405 100.875 107.411 100.556C108.128 100.443 108.033 99.3805 107.411 99.205C103.187 98.0118 99.6576 97.7311 95.9225 95.1767C91.2199 91.9631 90.9417 88.599 94.96 86.155C99.066 83.6558 101.929 79.2138 103.666 74.8396C107.727 64.6096 108.19 52.5723 107.596 41.678C107.105 32.6513 105.072 23.4992 100.242 15.7634C89.3674 -1.65085 64.087 -5.01238 48.3472 7.55888C37.3051 16.3801 33.9511 30.8138 33.4899 44.3126C33.0036 58.6235 33.7832 81.0513 49.2146 87.6841C51.5308 88.6793 50.1747 88.6768 49.6307 91.8277C49.2973 93.7579 48.7133 94.3545 48.3423 96.1243C47.3396 100.902 41.2081 98.0544 37.1321 99.205C36.5105 99.3805 36.4152 100.443 37.1321 100.556C39.0723 100.864 30.2963 116.198 31.6073 117.584C34.5377 120.675 48.5729 124.054 51.8717 126.782" fill="white"/>
</mask>
<g mask="url(#mask4_226_245)">
<path d="M71.3694 95.836C71.3694 95.836 70.9032 95.9263 70.0759 96.0892C69.8654 96.1293 69.6347 96.1719 69.3816 96.2196C69.1259 96.2672 68.8476 96.2973 68.5493 96.3424C67.9502 96.4176 67.2709 96.5329 66.5114 96.588C65.7543 96.6557 64.9221 96.7334 64.0272 96.7585C63.5785 96.7735 63.1147 96.8036 62.6385 96.8011C62.1597 96.7986 61.6683 96.7986 61.1645 96.7961C59.1491 96.7535 56.9331 96.5981 54.632 96.2722C52.3308 95.9413 50.165 95.4901 48.2147 95.0188C46.267 94.535 44.5298 94.0362 43.0834 93.5825C41.637 93.1313 40.4764 92.7377 39.6768 92.4544C38.8847 92.1712 38.4385 92.0107 38.4385 92.0107C38.4385 92.0107 38.9072 92.091 39.7344 92.2338C40.5767 92.3868 41.785 92.6048 43.2589 92.8705C44.7429 93.1438 46.5102 93.4621 48.4679 93.8056C50.4282 94.139 52.5764 94.4924 54.8375 94.8183C57.0986 95.1366 59.2569 95.3798 61.2272 95.5578C61.7185 95.5979 62.1998 95.6355 62.6685 95.6731C63.1373 95.7157 63.591 95.7257 64.0322 95.7533C64.9121 95.816 65.7343 95.8285 66.4838 95.8536C67.2358 95.8912 67.9151 95.8686 68.5142 95.8786C68.8125 95.8786 69.0933 95.8887 69.349 95.8811C69.6047 95.8736 69.8403 95.8686 70.0509 95.8636C70.8931 95.846 71.3694 95.836 71.3694 95.836Z" fill="#8794B1"/>
<path d="M101.904 91.0532C101.904 91.0532 101.741 91.1961 101.43 91.4719C101.116 91.7426 100.665 92.1612 100.039 92.64C98.8103 93.6301 96.9528 94.9838 94.4862 96.3825C93.8645 96.7235 93.2253 97.0995 92.5309 97.4429C92.185 97.6184 91.834 97.7988 91.4756 97.9818C91.1121 98.1523 90.7411 98.3278 90.3651 98.5057C89.6156 98.8717 88.8159 99.1926 88.0013 99.5511C87.5876 99.7165 87.169 99.8819 86.7454 100.052C86.5323 100.135 86.3192 100.22 86.1036 100.306C85.8856 100.386 85.6675 100.464 85.4469 100.544C81.9274 101.842 77.9492 102.973 73.7079 103.815C65.215 105.507 57.3389 105.728 51.7038 105.434C48.8812 105.289 46.6101 105.043 45.0484 104.82C44.2663 104.722 43.6647 104.61 43.2536 104.549C42.845 104.482 42.6294 104.447 42.6294 104.447C42.6294 104.447 42.8475 104.459 43.2611 104.487C43.6747 104.509 44.2838 104.565 45.0709 104.592C46.6402 104.677 48.9138 104.74 51.7188 104.7C57.3214 104.622 65.0621 104.038 73.4221 102.374C77.6008 101.546 81.5339 100.521 85.0408 99.3731C85.2614 99.3029 85.4795 99.2327 85.6951 99.1625C85.9106 99.0873 86.1237 99.0121 86.3368 98.9394C86.7604 98.7915 87.179 98.6436 87.5927 98.5007C88.4073 98.1849 89.212 97.9066 89.9665 97.5858C90.3475 97.4304 90.721 97.28 91.087 97.1296C91.4505 96.9691 91.8065 96.8137 92.1549 96.6608C92.8593 96.365 93.5111 96.0316 94.1453 95.7383C96.662 94.5175 98.6022 93.3344 99.9057 92.4595C100.57 92.0359 101.054 91.6649 101.392 91.4267C101.726 91.1811 101.904 91.0532 101.904 91.0532Z" fill="#8794B1"/>
</g>
</g>
</svg>
