<svg width="155" height="196" viewBox="0 0 155 196" fill="none" xmlns="http://www.w3.org/2000/svg">
<path d="M108.164 218.946L55.3887 220.474V103.787L95.2365 103.716L104.298 184.497L108.164 218.946Z" fill="white"/>
<path d="M108.164 218.946L55.3887 220.471V149.759C62.9274 175.683 85.6594 199.416 105.225 167.213L108.164 218.946Z" fill="#F0F0F7"/>
<path d="M104.159 54.0139C105.051 51.505 108.707 49.1662 110.239 50.0601C111.769 50.9516 112.62 55.3334 111.982 58.0954C111.343 60.8598 108.794 65.8328 107.9 66.8118C107.009 67.7884 103.691 69.7866 101.65 69.2332L104.159 54.0139Z" fill="#F7CDB9"/>
<path opacity="0.4" d="M105.051 52.479C104.663 52.9638 104.349 53.484 104.159 54.0137L101.65 69.233C102.968 69.5901 104.81 68.8831 106.198 68.0743L105.051 52.479Z" fill="#F09E78"/>
<path d="M50.5227 54.0139C49.6289 51.505 45.9707 49.1662 44.4407 50.0601C42.9107 50.9516 42.0618 55.3334 42.6979 58.0954C43.3364 60.8598 45.8855 65.8328 46.777 66.8118C47.6685 67.7884 50.9862 69.7866 53.027 69.2332L50.5227 54.0139Z" fill="#F7CDB9"/>
<path opacity="0.4" d="M49.6288 52.479C50.019 52.9638 50.3335 53.484 50.5227 54.0137L53.0317 69.233C51.7121 69.5901 49.8677 68.8831 48.4819 68.0743L49.6288 52.479Z" fill="#F09E78"/>
<path d="M57.9291 61.3257C57.9291 61.3257 59.4615 79.1817 59.802 87.7703C60.1402 96.359 60.8212 102.056 50.7026 109.54C40.5816 117.024 34.9701 120.51 31.825 122.976C28.68 125.443 27.403 126.888 26.126 129.439C24.8515 131.991 21.5456 139.097 21.9594 139.643C24.3407 142.79 48.2811 157.161 77.3388 157.161C106.396 157.161 130.339 142.79 132.718 139.643C133.134 139.094 129.826 131.988 128.551 129.439C127.277 126.888 126.002 125.443 122.855 122.976C119.71 120.51 114.096 117.024 103.977 109.54C93.8563 102.056 94.5374 96.3614 94.8779 87.7703C95.2184 79.1817 96.7507 61.3257 96.7507 61.3257H57.9291Z" fill="#FFD4C5"/>
<path opacity="0.4" d="M88.2539 94.7415C90.297 92.4738 92.6499 90.0807 94.9247 86.7724C95.3315 77.8764 96.7527 61.3257 96.7527 61.3257H57.9287C57.9287 61.3257 59.3475 77.8716 59.7566 86.7701C62.0315 90.0783 64.3797 92.4738 66.4275 94.7415C71.1688 99.9983 74.477 101.677 77.3407 101.677C80.202 101.677 83.5126 99.9983 88.2539 94.7415Z" fill="#F09E78"/>
<path d="M77.3388 6.1377C51.535 6.1377 47.5552 23.6555 47.5552 33.689C47.5552 43.7225 48.4514 53.2476 52.0292 66.8542C55.3162 79.3612 61.6867 83.8613 66.428 87.8576C71.1693 91.854 74.4775 93.131 77.3412 93.131C80.2025 93.131 83.5131 91.8564 88.2543 87.8576C92.9956 83.8613 99.3661 79.3612 102.653 66.8542C106.231 53.2476 107.127 43.7249 107.127 33.689C107.127 23.6555 103.145 6.1377 77.3388 6.1377Z" fill="#FFD4C5"/>
<path d="M77.3388 6.1377C51.535 6.1377 47.5552 23.6555 47.5552 33.689C47.5552 40.7737 48.0021 47.6078 49.525 55.8015L52.4005 46.825L56.3543 44.2451C55.5337 44.8623 54.3135 46.0376 53.8501 47.8182C57.0803 46.7707 67.6671 42.474 70.2778 35.5784C70.2778 35.5784 70.9186 44.912 70.3558 50.4714C74.5082 48.18 79.869 44.7417 82.6003 38.6029C82.6003 38.6029 83.1962 44.6968 83.4682 48.1729C87.7672 44.7512 90.8414 37.002 89.9664 28.288C92.2342 31.5608 95.5897 41.573 96.1289 47.7757C99.0871 44.5242 98.9216 39.7474 98.9216 39.7474L100.456 45.3305L101.996 47.149L103.656 56.5677C103.656 56.5677 104.379 55.8323 105.403 54.4465C106.728 46.8463 107.13 40.3812 107.13 33.689C107.127 23.6555 103.145 6.1377 77.3388 6.1377Z" fill="#E6C8BA"/>
<path d="M114.311 30.6268C113.76 29.0969 110.868 19.6143 109.295 17.2756C107.723 14.9369 101.388 10.3044 97.5594 8.17619C97.5594 8.17619 104.663 5.32671 107.127 4.52034C100.111 1.80091 96.4314 4.60547 94.7737 6.51852C94.7737 6.51852 89.2261 1.22629 86.9914 0.460117C84.7591 -0.306052 74.7469 -0.814469 58.1017 4.9247C50.9579 8.49543 45.5592 18.5526 43.859 20.7636C42.1587 22.9746 39.0137 24.5046 39.0137 24.5046C39.0137 24.5046 41.7331 26.4602 44.0292 26.4602C44.0292 26.4602 42.8374 29.6904 43.1779 40.4049C45.0484 50.5236 49.5248 55.8016 49.5248 55.8016L51.6815 46.4846L55.8907 40.7005C55.8907 40.7005 54.5735 45.0374 53.8499 47.816C57.0801 46.7684 66.4775 40.4026 69.6983 33.7695C69.6983 33.7695 69.4949 43.1244 68.4331 48.6081C72.7771 46.6998 78.4241 43.7605 81.6968 37.8936C81.6968 37.8936 81.7394 44.0159 81.6968 47.5038C86.2891 44.4841 90.8388 37.0021 89.9639 28.2858C92.2317 31.5585 96.2824 41.2539 97.1503 47.4187C99.9312 44.0159 99.5126 39.2557 99.5126 39.2557L101.341 44.7513L102.975 46.4846L105.129 55.8016C105.129 55.8016 109.605 50.5212 111.478 40.4049C111.644 35.1553 111.443 31.7099 111.194 29.5509C112.088 30.064 113.249 30.5843 114.311 30.6268Z" fill="#232021"/>
<g opacity="0.03">
<path d="M45.9778 17.5833C45.0342 19.021 44.3154 20.1726 43.859 20.7638C42.1587 22.9748 39.0137 24.5048 39.0137 24.5048C39.0137 24.5048 41.7331 26.4604 44.0292 26.4604C44.0292 26.4604 44.0198 26.4841 44.0056 26.5313C57.0021 28.4326 66.6596 25.8196 66.6596 25.8196C57.3095 23.0789 50.5771 20.0757 45.9778 17.5833Z" fill="white"/>
<path d="M109.293 17.276C109.187 17.1199 109.061 16.9544 108.917 16.7817C104.353 19.4184 97.4529 22.7054 87.6582 25.7511C87.6582 25.7511 98.543 28.5107 112.67 25.6731C111.58 22.4429 110.213 18.6428 109.293 17.276Z" fill="white"/>
</g>
<path d="M50.6173 109.244C71.3109 128.186 85.6128 129.004 105.06 109.244L116.158 218.946H46.1787L50.6173 109.244Z" fill="white"/>
<path d="M107.555 218.946L42.4849 220.471V149.759C51.7782 175.683 79.8072 199.416 103.93 167.213L107.555 218.946Z" fill="#F0F0F7"/>
<path d="M123.791 128.176L121.946 116.324C121.946 116.324 129.154 120.292 132.547 124.01C141.973 134.339 154.958 222.829 154.958 222.829L127.555 222.444L123.791 128.176Z" fill="#008E87"/>
<path d="M98.063 103.342C102.135 149.612 104.904 192.489 104.618 227.414L134.248 223.985C134.248 223.985 132.628 134.029 126.414 120.006C124.964 116.733 113.609 112.292 107.813 110.453C102.014 108.613 98.063 103.342 98.063 103.342Z" fill="#06A29E"/>
<mask id="mask0_226_419" style="mask-type:luminance" maskUnits="userSpaceOnUse" x="98" y="103" width="37" height="125">
<path d="M98.063 103.342C102.135 149.612 104.904 192.489 104.618 227.414L134.248 223.985C134.248 223.985 132.628 134.029 126.414 120.006C124.964 116.733 113.609 112.292 107.813 110.453C102.014 108.613 98.063 103.342 98.063 103.342Z" fill="white"/>
</mask>
<g mask="url(#mask0_226_419)">
<path opacity="0.3" d="M100.337 130.688C100.337 130.688 109.364 123.199 122.448 129.555C122.448 129.555 118.368 120.63 116.817 119.413C115.268 118.195 102.683 125.131 100.337 130.688Z" fill="#006B66"/>
<path d="M106.622 229.755L106.083 229.625C109.893 213.732 102.106 125.663 102.028 124.776L102.581 124.726C102.657 125.618 110.451 213.774 106.622 229.755Z" fill="#006661"/>
<path d="M105.826 161.412C105.495 161.412 105.171 161.41 104.856 161.405L104.864 160.85C115.247 160.992 134.028 158.743 134.217 158.721L134.283 159.272C134.099 159.294 116.41 161.412 105.826 161.412Z" fill="#006661"/>
<path d="M105.992 163.55C105.661 163.55 105.337 163.548 105.018 163.543L105.025 162.987C115.42 163.127 134.189 160.88 134.378 160.859L134.444 161.41C134.264 161.431 116.579 163.55 105.992 163.55Z" fill="#006661"/>
<path d="M121.1 229.736L120.551 229.649C123.069 213.93 119.477 163.403 119.442 162.895L119.995 162.855C120.031 163.363 123.627 213.954 121.1 229.736Z" fill="#006661"/>
</g>
<path d="M100.337 130.687C100.337 130.687 98.1024 104.091 97.4639 103.342C96.8254 102.59 95.0708 99.3218 95.111 96.7585C95.111 96.7585 97.497 95.037 99.9421 96.0869C102.387 97.1369 110.607 106.818 113.946 109.887C116.443 112.184 122.45 126.651 122.45 126.651C122.45 126.651 114.845 124.244 109.247 125.322C103.65 126.4 100.337 130.687 100.337 130.687Z" fill="#0FB5AC"/>
<mask id="mask1_226_419" style="mask-type:luminance" maskUnits="userSpaceOnUse" x="95" y="95" width="28" height="36">
<path d="M100.337 130.687C100.337 130.687 98.1024 104.091 97.4639 103.342C96.8254 102.59 95.0708 99.3218 95.111 96.7585C95.111 96.7585 97.497 95.037 99.9421 96.0869C102.387 97.1369 110.607 106.818 113.946 109.887C116.443 112.184 122.45 126.651 122.45 126.651C122.45 126.651 114.845 124.244 109.247 125.322C103.65 126.4 100.337 130.687 100.337 130.687Z" fill="white"/>
</mask>
<g mask="url(#mask1_226_419)">
<path d="M99.8483 129.728L99.4155 129.382C106.387 120.633 116.903 123.045 119.355 123.761C116.108 113.749 110.702 105.607 110.648 105.525L111.109 105.215C111.166 105.3 116.796 113.782 120.045 124.102L120.216 124.639L119.686 124.445C119.565 124.405 107.493 120.134 99.8483 129.728Z" fill="#006661"/>
</g>
<path d="M31.167 128.176L33.0115 116.324C33.0115 116.324 25.8038 120.292 22.4104 124.01C12.9847 134.339 0 222.829 0 222.829L27.4024 222.444L31.167 128.176Z" fill="#008E87"/>
<path d="M56.8954 103.342C52.8233 149.612 50.0542 192.489 50.3404 227.414L20.7104 223.985C20.7104 223.985 22.3303 134.029 28.5448 120.006C29.9943 116.733 41.3497 112.292 47.1456 110.453C52.9439 108.613 56.8954 103.342 56.8954 103.342Z" fill="#06A29E"/>
<mask id="mask2_226_419" style="mask-type:luminance" maskUnits="userSpaceOnUse" x="20" y="103" width="37" height="125">
<path d="M56.8954 103.342C52.8233 149.612 50.0542 192.489 50.3404 227.414L20.7104 223.985C20.7104 223.985 22.3303 134.029 28.5448 120.006C29.9943 116.733 41.3497 112.292 47.1456 110.453C52.9439 108.613 56.8954 103.342 56.8954 103.342Z" fill="white"/>
</mask>
<g mask="url(#mask2_226_419)">
<path opacity="0.3" d="M54.6204 130.688C54.6204 130.688 45.5942 123.199 32.5103 129.555C32.5103 129.555 36.5894 120.63 38.1406 119.413C39.6895 118.195 52.2746 125.131 54.6204 130.688Z" fill="#006B66"/>
<path d="M48.3351 229.755L48.8743 229.625C45.0647 213.732 52.8518 125.663 52.9298 124.776L52.3765 124.726C52.3008 125.618 44.5067 213.774 48.3351 229.755Z" fill="#006661"/>
<path d="M49.1313 161.412C49.4624 161.412 49.7864 161.41 50.1009 161.405L50.0938 160.85C39.7103 160.992 20.9297 158.743 20.7405 158.721L20.6743 159.272C20.8588 159.294 38.5469 161.412 49.1313 161.412Z" fill="#006661"/>
<path d="M48.9665 163.55C49.2975 163.55 49.6215 163.548 49.9407 163.543L49.9336 162.987C39.5383 163.127 20.7695 160.88 20.5804 160.859L20.5142 161.41C20.6962 161.431 38.3796 163.55 48.9665 163.55Z" fill="#006661"/>
<path d="M33.8584 229.736L34.407 229.649C31.8886 213.93 35.4806 163.403 35.5161 162.895L34.9627 162.855C34.9273 163.363 31.3305 213.954 33.8584 229.736Z" fill="#006661"/>
</g>
<path d="M54.6208 130.687C54.6208 130.687 56.8554 104.091 57.4939 103.342C58.1324 102.59 59.887 99.3218 59.8468 96.7585C59.8468 96.7585 57.4608 95.037 55.0157 96.0869C52.5706 97.1369 44.3508 106.818 41.0118 109.887C38.5147 112.184 32.5083 126.651 32.5083 126.651C32.5083 126.651 40.1132 124.244 45.7105 125.322C51.3078 126.4 54.6208 130.687 54.6208 130.687Z" fill="#0FB5AC"/>
<mask id="mask3_226_419" style="mask-type:luminance" maskUnits="userSpaceOnUse" x="32" y="95" width="28" height="36">
<path d="M54.6208 130.687C54.6208 130.687 56.8554 104.091 57.4939 103.342C58.1324 102.59 59.887 99.3218 59.8468 96.7585C59.8468 96.7585 57.4608 95.037 55.0157 96.0869C52.5706 97.1369 44.3508 106.818 41.0118 109.887C38.5147 112.184 32.5083 126.651 32.5083 126.651C32.5083 126.651 40.1132 124.244 45.7105 125.322C51.3078 126.4 54.6208 130.687 54.6208 130.687Z" fill="white"/>
</mask>
<g mask="url(#mask3_226_419)">
<path d="M55.11 129.728L55.5427 129.382C48.5715 120.633 38.0556 123.045 35.6034 123.761C38.8502 113.749 44.2559 105.607 44.3103 105.525L43.8492 105.215C43.7924 105.3 38.1621 113.782 34.9129 124.102L34.7427 124.639L35.2724 124.445C35.393 124.405 47.4649 120.134 55.11 129.728Z" fill="#006661"/>
</g>
</svg>
