<svg width="1393" height="1393" viewBox="0 0 1393 1393" fill="none" xmlns="http://www.w3.org/2000/svg">
<path d="M975.131 1152.55L825.789 901.661H1118.13C1147.76 901.661 1175.16 917.4 1190.09 942.995L1287.35 1109.73C1308.95 1146.75 1282.25 1193.25 1239.38 1193.25H1046.72C1017.35 1193.25 990.153 1177.79 975.131 1152.55Z" fill="#F7AB1B"/>
<path fill-rule="evenodd" clip-rule="evenodd" d="M582.708 217.811C625.464 143.755 732.354 143.755 775.11 217.81L859.595 364.142C987.866 663.171 863.877 1173.74 335.245 1196.73H209.929C124.417 1196.73 70.9717 1104.16 113.728 1030.1L582.708 217.811ZM678.051 642.656C656.742 605.273 602.852 605.273 581.544 642.656L479.266 822.09C458.161 859.117 484.9 905.135 527.52 905.135H827.665L678.051 642.656Z" fill="url(#paint0_linear_1244_227)"/>
<defs>
<linearGradient id="paint0_linear_1244_227" x1="234.454" y1="934.88" x2="311.387" y2="-65.0743" gradientUnits="userSpaceOnUse">
<stop stop-color="#259AB9"/>
<stop offset="1" stop-color="#00A99D"/>
</linearGradient>
</defs>
</svg>
